<svg width="426" height="102" viewBox="0 0 426 102" fill="none" xmlns="http://www.w3.org/2000/svg">
<path d="M120.42 99.5004L120.22 99.3304C117.48 96.8804 117.24 92.6604 119.7 89.9204L140 67.2304C142.45 64.4904 146.67 64.2504 149.41 66.7104L149.61 66.8804C152.35 69.3304 152.59 73.5504 150.13 76.2904L129.83 98.9804C127.38 101.72 123.17 101.95 120.42 99.5004Z" fill="#0052FF"/>
<path d="M160.6 59.4904L160.4 59.3204C157.66 56.8704 157.42 52.6504 159.88 49.9104L180.18 27.2204C182.63 24.4804 186.85 24.2404 189.59 26.7004L189.79 26.8704C192.53 29.3204 192.77 33.5404 190.31 36.2804L170.01 58.9704C167.56 61.7104 163.34 61.9404 160.6 59.4904Z" fill="#0052FF"/>
<path d="M152.09 59.0304L151.9 59.2104C149.23 61.7504 145.02 61.6504 142.48 58.9804L121.48 36.9404C118.94 34.2704 119.04 30.0604 121.71 27.5204L121.9 27.3404C124.57 24.8004 128.78 24.9004 131.32 27.5704L152.32 49.6104C154.85 52.2704 154.75 56.4904 152.09 59.0304Z" fill="white"/>
<path d="M189.48 98.2704L189.29 98.4504C186.62 100.99 182.41 100.89 179.87 98.2204L158.87 76.1804C156.33 73.5104 156.43 69.3004 159.1 66.7604L159.29 66.5804C161.96 64.0404 166.17 64.1404 168.71 66.8104L189.71 88.8504C192.25 91.5104 192.15 95.7304 189.48 98.2704Z" fill="white"/>
<path d="M397.46 68.5223C390.02 68.5223 382.58 68.6123 375.15 68.4723C372.77 68.4323 372.66 69.3923 373.06 71.2623C375.36 82.0423 385.47 89.1923 396.65 87.9623C402.07 87.3723 406.9 85.4123 411.08 81.9623C415.73 78.1223 418.59 80.6723 420.82 84.1123C422.01 85.9523 421.5 87.6723 419.95 89.2223C414.76 94.4123 408.48 97.6923 401.34 98.9323C391.6 100.622 382.19 99.6023 373.9 93.5823C364.42 86.7023 359.96 77.0823 359.19 65.6223C358.12 49.8223 365.75 35.9023 378.84 29.6323C392.84 22.9223 415.6 26.1923 423.17 48.7023C424.85 53.7123 425.4 58.8523 425.18 64.0923C425.06 66.8323 423.24 68.4923 420.29 68.5023C412.69 68.5223 405.08 68.5123 397.48 68.5123C397.46 68.5123 397.46 68.5123 397.46 68.5223ZM392.56 57.6523C392.56 57.6823 392.56 57.7023 392.56 57.7323C398.51 57.7323 404.45 57.6823 410.4 57.7623C411.97 57.7823 412.42 57.3423 412.21 55.7923C411.47 50.3223 409.14 45.7223 404.89 42.1823C395.68 34.5123 376.21 36.8123 372.89 55.3923C372.58 57.1323 372.93 57.7023 374.73 57.6823C380.67 57.6023 386.62 57.6523 392.56 57.6523Z" fill="white"/>
<path d="M0.0200332 49.5167C0.0200332 35.1502 0.0200332 20.7939 0.0200332 6.4274C0.0200332 1.52201 1.4827 0 6.23135 0C23.8635 0 41.5057 0.0102904 59.1378 0.0308581C64.5477 0.041142 67.3127 4.04156 65.3892 9.28632C64.5777 11.5179 62.8947 12.6491 60.3701 12.6388C45.5531 12.5669 30.726 12.6594 15.909 12.5257C13.5447 12.5052 13.0438 13.2559 13.0738 15.4978C13.2041 24.7635 13.184 34.019 13.174 43.2847C13.174 44.7553 13.3844 45.3312 14.9272 44.4571C16.0793 43.8092 17.4518 43.7578 18.7943 43.7578C31.788 43.7681 44.7917 43.7475 57.7854 43.7475C60.9311 43.7475 62.7344 45.4649 62.9347 48.6426C62.9949 49.5784 62.9948 50.5143 62.9448 51.4501C62.7945 54.381 61.0513 56.1292 58.156 56.1292C44.0002 56.1292 29.8444 56.1601 15.6886 56.0264C13.4445 56.0058 12.9436 56.6331 12.9636 58.8442C13.1039 70.3107 13.0838 81.7874 13.1039 93.2642C13.1039 97.2955 11.4709 98.9409 7.52371 98.9923C7.0228 99.0026 6.53191 99.0026 6.03099 98.9923C1.67305 98.9717 0 97.2955 0 92.8734C0 78.4143 0.0100149 63.9655 0.0200332 49.5167Z" fill="white"/>
<path d="M293.19 38.4123C299 31.7623 305.5 27.8223 313.71 26.7523C328.86 24.7623 341.66 34.7523 343.27 49.9323C344.28 59.5023 343.54 69.0923 343.76 78.6723C343.88 83.6323 343.79 88.5923 343.75 93.5523C343.72 97.2423 341.93 99.0323 338.29 99.0923C337.63 99.1023 336.97 99.1023 336.31 99.0823C332.59 99.0123 330.88 97.3123 330.88 93.5923C330.87 81.1923 330.93 68.7923 330.84 56.3923C330.8 50.5523 329.19 45.3123 324.27 41.5623C317.1 36.1123 304.75 37.8023 298.41 45.1323C294.98 49.1023 293.21 53.6923 293.2 58.9423C293.17 70.5123 293.18 82.0923 293.17 93.6623C293.17 97.1523 291.4 98.9823 287.92 99.1023C287.34 99.1223 286.76 99.1223 286.18 99.1223C281.94 99.1123 280.27 97.5123 280.26 93.3323C280.24 84.8223 280.26 76.3023 280.26 67.7923C280.26 56.3023 280.26 44.8123 280.27 33.3223C280.27 29.1723 282.02 27.5523 286.48 27.5323C291.3 27.5123 293.18 29.1423 293.21 33.3723C293.2 34.8323 293.19 36.2923 293.19 38.4123Z" fill="white"/>
<path d="M210.75 49.6823C210.75 35.2123 210.75 20.7423 210.75 6.28227C210.75 2.02227 212.63 0.0822733 216.85 0.00227332C221.33 -0.0777267 223.56 1.95227 223.57 6.32227C223.59 24.1823 223.56 42.0323 223.56 59.8923C223.56 70.9723 223.55 82.0523 223.56 93.1223C223.56 97.4723 222.02 99.0423 217.58 99.0623C215.94 99.0723 214.24 99.3723 212.77 98.3423C211.21 97.2523 210.73 95.7123 210.74 93.8423C210.77 79.1123 210.75 64.3923 210.75 49.6823Z" fill="white"/>
<path d="M246.08 63.5423C246.08 53.6223 246.1 43.7123 246.07 33.7923C246.06 31.2223 246.54 28.8923 249.32 28.0423C252.34 27.1123 255.36 26.9923 257.95 29.2823C259.25 30.4323 259.3 32.0323 259.29 33.6323C259.26 50.9023 259.25 68.1723 259.24 85.4423C259.24 88.3323 259.3 91.2323 259.24 94.1223C259.19 96.8323 257.58 98.7423 254.97 99.0523C253.43 99.2323 251.81 99.2323 250.28 99.0123C247.47 98.6123 246.06 96.6823 246.05 93.5423C246.04 83.5423 246.05 73.5423 246.05 63.5423C246.06 63.5423 246.07 63.5423 246.08 63.5423Z" fill="white"/>
<path d="M84.7 63.2023C84.7 53.2123 84.7 43.2223 84.7 33.2323C84.7 29.3223 86.67 27.5923 91.09 27.5623C95.4 27.5323 97.69 29.4323 97.69 33.1223C97.71 53.0123 97.69 72.9123 97.74 92.8023C97.75 95.2723 97.43 97.6723 94.93 98.5923C92.21 99.6023 89.28 99.8123 86.61 98.1623C85.05 97.2023 84.64 95.6723 84.65 93.8923C84.69 83.6523 84.67 73.4223 84.67 63.1823C84.68 63.2023 84.69 63.2023 84.7 63.2023Z" fill="white"/>
<path d="M99.16 8.92227C99.18 13.5023 95.84 16.9623 91.33 17.0223C86.69 17.0923 83.09 13.6223 83.05 9.05228C83.01 4.24228 86.3 0.592277 90.77 0.512277C95.56 0.412277 99.14 4.00227 99.16 8.92227Z" fill="white"/>
<path d="M260.65 8.70227C260.56 13.5423 257.06 17.0123 252.35 16.9123C247.81 16.8123 244.47 13.2323 244.51 8.52227C244.55 3.84227 248.26 0.30227 252.97 0.43227C257.46 0.56227 260.74 4.09227 260.65 8.70227Z" fill="white"/>
</svg>
