<svg width="1274" height="304" viewBox="0 0 1274 304" fill="none" xmlns="http://www.w3.org/2000/svg">
<path d="M360.786 298.109L360.187 297.599C351.978 290.259 351.258 277.615 358.629 269.406L419.449 201.426C426.789 193.217 439.432 192.498 447.641 199.868L448.241 200.377C456.45 207.718 457.169 220.361 449.799 228.57L388.979 296.551C381.638 304.76 369.025 305.449 360.786 298.109Z" fill="#0052FF"/>
<path d="M481.167 178.236L480.568 177.727C472.359 170.387 471.64 157.743 479.01 149.534L539.83 81.5537C547.17 73.3445 559.814 72.6255 568.023 79.9957L568.622 80.5051C576.831 87.8454 577.55 100.489 570.18 108.698L509.36 176.678C502.02 184.888 489.376 185.577 481.167 178.236Z" fill="#0052FF"/>
<path d="M455.671 176.858L455.102 177.397C447.102 185.007 434.489 184.708 426.879 176.708L363.962 110.675C356.352 102.676 356.651 90.0625 364.651 82.4525L365.22 81.9132C373.22 74.3033 385.833 74.6029 393.443 82.6023L456.36 148.635C463.94 156.605 463.64 169.248 455.671 176.858Z" fill="#182135"/>
<path d="M567.693 294.423L567.124 294.963C559.125 302.573 546.511 302.273 538.901 294.274L475.984 228.24C468.374 220.241 468.674 207.628 476.673 200.018L477.242 199.478C485.242 191.868 497.855 192.168 505.465 200.167L568.382 266.2C575.992 274.17 575.693 286.813 567.693 294.423Z" fill="#182135"/>
<path d="M1190.81 205.296C1168.52 205.296 1146.23 205.566 1123.97 205.147C1116.84 205.027 1116.51 207.903 1117.71 213.505C1124.6 245.803 1154.89 267.225 1188.38 263.54C1204.62 261.772 1219.09 255.9 1231.62 245.563C1245.55 234.058 1254.12 241.698 1260.8 252.005C1264.36 257.518 1262.84 262.671 1258.19 267.315C1242.64 282.864 1223.83 292.691 1202.44 296.406C1173.25 301.47 1145.06 298.414 1120.22 280.377C1091.82 259.765 1078.46 230.943 1076.15 196.608C1072.95 149.27 1095.81 107.565 1135.02 88.7798C1176.97 68.6763 1245.16 78.4734 1267.84 145.915C1272.87 160.925 1274.52 176.324 1273.86 192.024C1273.5 200.233 1268.05 205.206 1259.21 205.236C1236.44 205.296 1213.64 205.266 1190.87 205.266C1190.81 205.266 1190.81 205.266 1190.81 205.296ZM1176.13 172.729C1176.13 172.819 1176.13 172.879 1176.13 172.969C1193.96 172.969 1211.75 172.819 1229.58 173.059C1234.28 173.119 1235.63 171.8 1235 167.157C1232.79 150.768 1225.81 136.986 1213.07 126.38C1185.48 103.401 1127.15 110.291 1117.2 165.958C1116.27 171.171 1117.32 172.879 1122.71 172.819C1140.51 172.579 1158.33 172.729 1176.13 172.729Z" fill="#0040CC"/>
<path d="M0.0600204 148.355C0.0600204 105.312 0.0600204 62.2997 0.0600204 19.2568C0.0600204 4.56002 4.44224 0 18.6695 0C71.4963 0 124.353 0.0308307 177.18 0.0924526C193.388 0.123264 201.672 12.1087 195.91 27.8223C193.478 34.5083 188.436 37.8975 180.872 37.8666C136.479 37.651 92.0568 37.9283 47.6642 37.5277C40.5806 37.4661 39.0798 39.7153 39.1699 46.4321C39.5601 74.1927 39.5001 101.923 39.47 129.683C39.47 134.089 40.1004 135.815 44.7227 133.196C48.1745 131.255 52.2866 131.101 56.3086 131.101C95.2384 131.131 134.198 131.07 173.128 131.07C182.553 131.07 187.956 136.215 188.556 145.736C188.736 148.54 188.736 151.343 188.586 154.147C188.136 162.928 182.913 168.166 174.239 168.166C131.827 168.166 89.4154 168.259 47.0039 167.858C40.2805 167.796 38.7797 169.676 38.8397 176.3C39.2599 210.654 39.1999 245.039 39.2599 279.424C39.2599 291.502 34.3674 296.432 22.5414 296.586C21.0407 296.617 19.5699 296.617 18.0692 296.586C5.01254 296.524 0 291.502 0 278.254C0 234.933 0.0300052 191.644 0.0600204 148.355Z" fill="#0040CC"/>
<path d="M878.413 115.085C895.82 95.1615 915.294 83.357 939.892 80.1512C985.282 74.1891 1023.63 104.12 1028.46 149.6C1031.48 178.272 1029.26 207.004 1029.92 235.706C1030.28 250.567 1030.01 265.427 1029.89 280.288C1029.8 291.343 1024.44 296.706 1013.53 296.886C1011.56 296.916 1009.58 296.916 1007.6 296.856C996.457 296.646 991.334 291.553 991.334 280.407C991.304 243.256 991.484 206.105 991.214 168.954C991.094 151.457 986.271 135.758 971.53 124.523C950.048 108.194 913.047 113.258 894.052 135.219C883.776 147.113 878.473 160.865 878.443 176.594C878.353 211.259 878.383 245.953 878.353 280.617C878.353 291.073 873.05 296.556 862.624 296.916C860.886 296.976 859.148 296.976 857.41 296.976C844.707 296.946 839.704 292.152 839.674 279.628C839.614 254.132 839.674 228.606 839.674 203.109C839.674 168.685 839.674 134.26 839.704 99.8353C839.704 87.4017 844.947 82.5481 858.309 82.4881C872.75 82.4282 878.383 87.3118 878.473 99.9851C878.443 104.359 878.413 108.734 878.413 115.085Z" fill="#0040CC"/>
<path d="M631.418 148.851C631.418 105.498 631.418 62.1449 631.418 18.822C631.418 6.05883 637.051 0.246495 649.694 0.00681098C663.116 -0.232873 669.798 5.84911 669.828 18.9419C669.887 72.4514 669.798 125.931 669.798 179.44C669.798 212.637 669.768 245.833 669.798 278.999C669.798 292.032 665.184 296.736 651.881 296.796C646.968 296.826 641.874 297.725 637.47 294.639C632.796 291.373 631.358 286.759 631.388 281.156C631.478 237.025 631.418 192.923 631.418 148.851Z" fill="#0040CC"/>
<path d="M737.269 190.376C737.269 160.655 737.329 130.964 737.239 101.243C737.209 93.5435 738.647 86.5627 746.976 84.016C756.024 81.2297 765.072 80.8702 772.832 87.7311C776.727 91.1766 776.877 95.9703 776.847 100.764C776.757 152.506 776.727 204.248 776.697 255.989C776.697 264.648 776.876 273.337 776.697 281.995C776.547 290.115 771.723 295.837 763.904 296.766C759.29 297.305 754.436 297.305 749.852 296.646C741.433 295.447 737.209 289.665 737.179 280.258C737.149 250.297 737.179 220.336 737.179 190.376C737.209 190.376 737.239 190.376 737.269 190.376Z" fill="#0040CC"/>
<path d="M253.766 189.357C253.766 159.427 253.766 129.496 253.766 99.5657C253.766 87.8511 259.668 82.668 272.91 82.5781C285.823 82.4882 292.684 88.1807 292.684 99.2361C292.744 158.828 292.684 218.449 292.834 278.041C292.864 285.441 291.905 292.631 284.415 295.388C276.266 298.414 267.488 299.043 259.488 294.099C254.814 291.223 253.586 286.639 253.616 281.306C253.736 250.627 253.676 219.977 253.676 189.297C253.706 189.357 253.736 189.357 253.766 189.357Z" fill="#0040CC"/>
<path d="M297.089 26.7317C297.148 40.4536 287.142 50.82 273.629 50.9997C259.728 51.2095 248.942 40.8132 248.822 27.1212C248.702 12.7102 258.559 1.7746 271.952 1.53492C286.303 1.23531 297.029 11.9911 297.089 26.7317Z" fill="#0040CC"/>
<path d="M780.921 26.0724C780.651 40.5733 770.165 50.9696 756.054 50.67C742.452 50.3704 732.445 39.6445 732.565 25.5331C732.685 11.5116 743.8 0.905571 757.911 1.29506C771.364 1.68454 781.191 12.2606 780.921 26.0724Z" fill="#0040CC"/>
</svg>
