<svg width="75" height="77" viewBox="0 0 75 77" fill="none" xmlns="http://www.w3.org/2000/svg">
<path d="M2.4204 74.5004L2.22041 74.3304C-0.519594 71.8804 -0.759598 67.6604 1.7004 64.9204L22.0004 42.2304C24.4504 39.4904 28.6704 39.2504 31.4104 41.7104L31.6104 41.8804C34.3504 44.3304 34.5904 48.5504 32.1304 51.2904L11.8304 73.9804C9.38039 76.7204 5.1704 76.9504 2.4204 74.5004Z" fill="#0052FF"/>
<path d="M42.6004 34.4904L42.4004 34.3204C39.6604 31.8704 39.4204 27.6504 41.8804 24.9104L62.1804 2.2204C64.6304 -0.519598 68.8504 -0.759595 71.5904 1.70041L71.7904 1.8704C74.5304 4.3204 74.7704 8.54041 72.3104 11.2804L52.0104 33.9704C49.5604 36.7104 45.3404 36.9404 42.6004 34.4904Z" fill="#0052FF"/>
<path d="M34.0904 34.0304L33.9004 34.2104C31.2304 36.7504 27.0204 36.6504 24.4804 33.9804L3.48041 11.9404C0.940406 9.2704 1.0404 5.06041 3.7104 2.52041L3.9004 2.34041C6.5704 -0.199594 10.7804 -0.0995982 13.3204 2.5704L34.3204 24.6104C36.8504 27.2704 36.7504 31.4904 34.0904 34.0304Z" fill="black"/>
<path d="M71.4804 73.2704L71.2904 73.4504C68.6204 75.9904 64.4104 75.8904 61.8704 73.2204L40.8704 51.1804C38.3304 48.5104 38.4304 44.3004 41.1004 41.7604L41.2904 41.5804C43.9604 39.0404 48.1704 39.1404 50.7104 41.8104L71.7104 63.8504C74.2504 66.5104 74.1504 70.7304 71.4804 73.2704Z" fill="black"/>
</svg>
